<svg width="402" height="403" viewBox="0 0 402 403" fill="none" xmlns="http://www.w3.org/2000/svg">
<path d="M194.832 235.354C194.832 242.42 193.032 248.754 189.432 254.354C185.832 259.82 180.965 264.154 174.832 267.354C168.832 270.42 162.232 271.954 155.032 271.954H88.0321V129.954H156.432C163.099 129.954 168.832 131.754 173.632 135.354C178.565 138.82 182.299 143.354 184.832 148.954C187.499 154.42 188.832 160.154 188.832 166.154C188.832 173.22 187.032 179.754 183.432 185.754C179.832 191.754 174.832 196.22 168.432 199.154C176.565 201.554 182.965 206.02 187.632 212.554C192.432 219.087 194.832 226.687 194.832 235.354ZM180.832 232.954C180.832 228.154 179.765 223.754 177.632 219.754C175.499 215.62 172.565 212.287 168.832 209.754C165.232 207.22 161.099 205.954 156.432 205.954H102.032V259.754H155.032C159.832 259.754 164.165 258.487 168.032 255.954C171.899 253.42 174.965 250.154 177.232 246.154C179.632 242.02 180.832 237.62 180.832 232.954ZM102.032 142.154V194.554H150.832C155.499 194.554 159.632 193.354 163.232 190.954C166.832 188.42 169.699 185.154 171.832 181.154C173.965 177.154 175.032 172.887 175.032 168.354C175.032 163.554 174.032 159.22 172.032 155.354C170.032 151.354 167.299 148.154 163.832 145.754C160.365 143.354 156.432 142.154 152.032 142.154H102.032ZM221.235 271.954V130.154H235.235V212.554L313.435 129.954H328.835L270.835 192.354L331.835 271.954H316.035L261.835 200.754L235.235 228.354V271.954H221.235Z" fill="currentColor"/>
<rect x="10.5969" y="10.8186" width="381.27" height="381.27" stroke="#FFCC00" stroke-width="20"/>
<mask id="mask0_301_715" style="mask-type:alpha" maskUnits="userSpaceOnUse" x="0" y="0" width="402" height="209">
<rect x="0.596924" y="0.818604" width="401.27" height="208" fill="#C4C4C4"/>
</mask>
<g mask="url(#mask0_301_715)">
<path d="M10.5969 10.8186H391.867V392.089H10.5969V10.8186Z" stroke="#0066CC" stroke-width="20"/>
</g>
</svg>