<svg width="1024" height="1024" fill="none" xmlns="http://www.w3.org/2000/svg">
<style>
  #favicon-path { fill: #212121 }

  @media (prefers-color-scheme: dark) {
    #favicon-path { fill: #ffffff }
  }
</style>
<path id="favicon-path" d="M88.84 756.568V266.562h167.978c22.629 0 44.678 1.741 66.147 5.222 22.048 2.901 41.776 8.994 59.183 18.277 17.407 8.704 31.333 21.759 41.777 39.166 10.444 16.827 15.666 39.456 15.666 67.887 0 18.568-3.481 35.974-10.444 52.221-6.963 15.666-20.018 28.431-39.166 38.295-18.567 9.864-45.258 15.086-80.072 15.667v2.611c40.617.58 71.659 6.672 93.128 18.277 22.048 11.024 37.134 25.82 45.258 44.388 8.123 18.567 12.184 38.585 12.184 60.054 0 28.431-5.802 51.06-17.406 67.887-11.025 16.826-26.111 29.592-45.259 38.295-18.567 8.704-39.165 14.506-61.794 17.407a533.355 533.355 0 0 1-67.887 4.352H88.841zm39.167-269.808h125.33c29.591 0 55.122-1.741 76.59-5.222 22.049-4.062 38.876-12.185 50.48-24.37 12.185-12.765 18.278-32.203 18.278-58.313 0-29.592-6.673-51.061-20.018-64.406-13.346-13.926-31.043-22.919-53.091-26.981-22.049-4.061-45.839-6.092-71.369-6.092h-126.2V486.76zm0 235.864h138.385c28.431 0 54.252-2.031 77.461-6.092 23.209-4.642 41.486-13.926 54.832-27.851 13.925-13.926 20.888-34.814 20.888-62.665 0-29.592-7.543-51.641-22.629-66.147-14.506-15.086-34.524-25.24-60.054-30.462-24.95-5.802-52.511-8.704-82.683-8.704h-126.2v201.921zM554.817 757.438V266.562h40.036v267.197l278.511-267.197h51.351v8.703L707.998 477.186l227.161 270.678v8.704H888.16L679.277 504.167l-84.424 78.331v174.94h-40.036z" fill="#ffffff"/>
</svg>